<?xml version="1.0" encoding="utf-8"?>
<?xml-stylesheet type="text/xsl" href="rss1.xsl"?>
<rss version="2.0" xmlns:atom="http://www.w3.org/2005/Atom" xmlns:content="http://purl.org/rss/1.0/modules/content/" xmlns:dc="http://purl.org/dc/elements/1.1/" xmlns:media="http://search.yahoo.com/mrss/">
<channel>
 <title>Getty</title>
 <link>http://www.gettyimg.com/</link>
 <atom:link href="http://www.gettyimg.com/" rel="self" type="application/rss+xml" />

 
                <item>
                <title><![CDATA[【UPSCALED】Taylor Swift - Red (Taylor's Version) [4K.AI.UPSCALE.60fps.x265.10bit.Dolby-Atmos]]]></title>
                <link><![CDATA[https://sharemania.us/threads/taylor-swift-red-taylors-version-4k-ai-upscale-60fps-x265-10bit-dolby-atmos.228744/]]></link>
                <description><![CDATA[<article>
<blockquote class="messageText SelectQuoteContainer ugc baseHtml">
<img src="https://i.imgur.com/LAd6Lqt.jpg" class="bbCodeImage LbImage" alt="[​IMG]" data-url="https://i.imgur.com/LAd6Lqt.jpg" style=""><br>
<img src="https://i.imgur.com/4iehuTS.jpg" class="bbCodeImage LbImage" alt="[​IMG]" data-url="https://i.imgur.com/4iehuTS.jpg" style=""><br>
<img src="https://i.imgur.com/F3J1JPn.jpg" class="bbCodeImage LbImage" alt="[​IMG]" data-url="https://i.imgur.com/F3J1JPn.jpg" style=""><br>
<br>
<div class="bbCodeBlock bbCodeCode">
<div class="type">Code:</div>
<pre>General
Format                                   : Matroska
Format version                           : Version 4
File size                                : 939 MiB
Duration                                 : 4 min 1 s
Overall bit rate                         : 32.6 Mb/s
Frame rate                               : 59.940 FPS

Video
ID                                       : 1
Format                                   : HEVC
Format/Info                              : High Efficiency Video Coding
Format profile                           : Main 10@L5.1@High
Codec ID                                 : V_MPEGH/ISO/HEVC
Duration                                 : 4 min 1 s
Bit rate                                 : 31.5 Mb/s
Width                                    : 3 840 pixels
Height                                   : 2 160 pixels
Display aspect ratio                     : 16:9
Frame rate mode                          : Constant
Frame rate                               : 59.940 (60000/1001) FPS
Color space                              : YUV
Chroma subsampling                       : 4:2:0 (Type 0)
Bit depth                                : 10 bits
Bits/(Pixel*Frame)                       : 0.063
Stream size                              : 908 MiB (97%)
Default                                  : Yes
Forced                                   : No
Color range                              : Limited
Color primaries                          : BT.709
Transfer characteristics                 : BT.709
Matrix coefficients                      : BT.709

Audio
ID                                       : 2
Format                                   : AC-3
Format/Info                              : Audio Coding 3
Commercial name                          : Dolby Digital
Codec ID                                 : A_AC3
Duration                                 : 4 min 1 s
Bit rate mode                            : Constant
Bit rate                                 : 448 kb/s
Channel(s)                               : 6 channels
Channel layout                           : L R C LFE Ls Rs
Sampling rate                            : 48.0 kHz
Frame rate                               : 31.250 FPS (1536 SPF)
Compression mode                         : Lossy
Delay relative to video                  : -5 ms
Stream size                              : 12.9 MiB (1%)
Title                                    : Surround
Service kind                             : Complete Main
Default                                  : Yes
Forced                                   : No</pre>
</div><div style="text-align: center">
<div class="bbCodeBlock bbCodeVfcHH HiddenContent">
<div class="attribution type">Hidden Content:</div>
<blockquote>You must reply before you can see the hidden data contained here.</blockquote>
</div></div>
<div class="messageTextEndMarker">&nbsp;</div>
</blockquote>
</article>]]></description>
                <author><![CDATA[Librious]]></author>
                </item>

                </channel></rss>